<svg width="100" height="88" viewBox="0 0 100 88" fill="none" xmlns="http://www.w3.org/2000/svg">
<path fill-rule="evenodd" clip-rule="evenodd" d="M0 4C0 1.79086 1.79086 0 4 0H62C64.2091 0 66 1.79086 66 4C66 6.20914 64.2091 8 62 8H4C1.79086 8 0 6.20914 0 4ZM0 44C0 41.7909 1.79086 40 4 40H96C98.2091 40 100 41.7909 100 44C100 46.2091 98.2091 48 96 48H4C1.79086 48 0 46.2091 0 44ZM38 80C35.7909 80 34 81.7909 34 84C34 86.2091 35.7909 88 38 88H96C98.2091 88 100 86.2091 100 84C100 81.7909 98.2091 80 96 80H38Z" fill="black"/>
</svg>
