<svg width="130" height="59" viewBox="0 0 130 59" fill="none" xmlns="http://www.w3.org/2000/svg">
<path d="M17.576 58.648C14.312 58.648 11.096 58.288 7.928 57.568C4.76 56.8 2.216 55.816 0.296 54.616L4.4 45.256C6.176 46.36 8.288 47.248 10.736 47.92C13.184 48.544 15.608 48.856 18.008 48.856C20.216 48.856 21.776 48.64 22.688 48.208C23.648 47.728 24.128 47.056 24.128 46.192C24.128 45.328 23.552 44.728 22.4 44.392C21.296 44.008 19.52 43.648 17.072 43.312C13.952 42.928 11.288 42.424 9.08 41.8C6.92 41.176 5.048 40.024 3.464 38.344C1.88 36.664 1.088 34.312 1.088 31.288C1.088 28.792 1.832 26.584 3.32 24.664C4.808 22.696 6.968 21.16 9.8 20.056C12.68 18.904 16.112 18.328 20.096 18.328C22.928 18.328 25.736 18.616 28.52 19.192C31.304 19.768 33.632 20.584 35.504 21.64L31.4 30.928C27.944 29.008 24.2 28.048 20.168 28.048C18.008 28.048 16.424 28.312 15.416 28.84C14.408 29.32 13.904 29.968 13.904 30.784C13.904 31.696 14.456 32.344 15.56 32.728C16.664 33.064 18.488 33.424 21.032 33.808C24.248 34.288 26.912 34.84 29.024 35.464C31.136 36.088 32.96 37.24 34.496 38.92C36.08 40.552 36.872 42.856 36.872 45.832C36.872 48.28 36.128 50.488 34.64 52.456C33.152 54.376 30.944 55.888 28.016 56.992C25.136 58.096 21.656 58.648 17.576 58.648ZM42.767 18.976H56.447V58H42.767V18.976ZM49.607 14.656C47.111 14.656 45.095 13.96 43.559 12.568C42.023 11.176 41.255 9.448 41.255 7.384C41.255 5.32 42.023 3.592 43.559 2.2C45.095 0.807998 47.111 0.111999 49.607 0.111999C52.103 0.111999 54.119 0.783998 55.655 2.128C57.191 3.424 57.959 5.104 57.959 7.168C57.959 9.328 57.191 11.128 55.655 12.568C54.119 13.96 52.103 14.656 49.607 14.656ZM106.809 4.576V58H93.7773V54.112C91.2333 57.136 87.4173 58.648 82.3293 58.648C78.7773 58.648 75.5373 57.832 72.6093 56.2C69.6813 54.52 67.3533 52.144 65.6253 49.072C63.9453 46 63.1053 42.448 63.1053 38.416C63.1053 34.384 63.9453 30.856 65.6253 27.832C67.3533 24.76 69.6813 22.408 72.6093 20.776C75.5373 19.144 78.7773 18.328 82.3293 18.328C86.9853 18.328 90.5853 19.672 93.1293 22.36V4.576H106.809ZM85.2093 47.776C87.5613 47.776 89.5053 46.96 91.0413 45.328C92.5773 43.648 93.3453 41.344 93.3453 38.416C93.3453 35.536 92.5773 33.28 91.0413 31.648C89.5533 30.016 87.6093 29.2 85.2093 29.2C82.8093 29.2 80.8413 30.016 79.3053 31.648C77.7693 33.28 77.0013 35.536 77.0013 38.416C77.0013 41.344 77.7693 43.648 79.3053 45.328C80.8413 46.96 82.8093 47.776 85.2093 47.776ZM121.371 58.648C119.067 58.648 117.123 57.88 115.539 56.344C113.955 54.808 113.163 52.864 113.163 50.512C113.163 48.112 113.931 46.168 115.467 44.68C117.051 43.192 119.019 42.448 121.371 42.448C123.771 42.448 125.739 43.192 127.275 44.68C128.811 46.168 129.579 48.112 129.579 50.512C129.579 52.864 128.787 54.808 127.203 56.344C125.667 57.88 123.723 58.648 121.371 58.648Z" fill="black"/>
</svg>
