<?xml version="1.0" ?><svg id="Layer_1" style="enable-background:new 0 0 96 96;" version="1.1" viewBox="0 0 96 96" xml:space="preserve" xmlns="http://www.w3.org/2000/svg" xmlns:xlink="http://www.w3.org/1999/xlink"><path d="M58.7,37.9c3.5-2.3,7.7-3.5,12.6-3.5C87.8,34.4,96,46.6,96,62.3v27.5c0,2.2-1.8,4-4,4H74c-2.2,0-4-1.8-4-4V61.5  c0-4.6-0.6-5.1-5.1-5.1c-2.7,0-4.5,1.6-5.5,4c-0.3,0.7-0.3,2.1-0.3,2.8v26.7c0,2.2-1.8,4-4,4h-18c-1.1,0-2.1-0.4-2.8-1.2  c-0.8-0.8-1.2-1.7-1.2-2.8c0-8.4,0.1-16.9,0.1-25.3c0-8.1,0.3-16.6-0.1-24.7c-0.1-1.1,0.3-2.1,1.1-2.9s1.8-1.2,2.9-1.2h18  C56.7,35.7,58,36.6,58.7,37.9L58.7,37.9z M13.2,2c7.2,0,13.2,5.8,13.2,13s-6,13-13.2,13C6,28,0,22.2,0,15S6,2,13.2,2L13.2,2z   M22.3,94H4c-2.2,0-4-1.8-4-4V38.6c0-2.2,1.8-4,4-4h18.3c2.2,0,4,1.8,4,4V90C26.3,92.2,24.5,94,22.3,94L22.3,94z M92,89.8V62.3  c0-16.3-8.9-23.9-20.7-23.9c-9.5,0-13.8,5.1-16.2,8.8v-7.5h-18c0.2,5,0,50.2,0,50.2h18V63.1c0-1.6,0.1-3.2,0.6-4.3  c1.3-3.2,4.3-6.5,9.2-6.5c6.5,0,9.1,2,9.1,9.1v28.4H92L92,89.8z M13.2,6C8.1,6,4,10,4,15s4.1,9,9.2,9c5.1,0,9.2-4,9.2-9  S18.2,6,13.2,6L13.2,6z M22.3,90V38.6H4V90H22.3z"/></svg>