<?xml version="1.0" encoding="UTF-8"?>
<svg width="24px" height="24px" viewBox="0 0 24 24" version="1.1" xmlns="http://www.w3.org/2000/svg" xmlns:xlink="http://www.w3.org/1999/xlink">
    <!-- Generator: Sketch 55.2 (78181) - https://sketchapp.com -->
    <title>sm-icon-dribbble</title>
    <desc>Created with Sketch.</desc>
    <defs>
        <rect id="path-1" x="0" y="0" width="24" height="24"></rect>
    </defs>
    <g id="Symbols" stroke="none" stroke-width="1" fill="none" fill-rule="evenodd">
        <g id="nav" transform="translate(-1760.000000, -1057.000000)">
            <g id="sm-icon-dribbble" transform="translate(1760.000000, 1057.000000)">
                <rect id="Artboard3" x="0" y="0" width="24" height="24"></rect>
                <g id="Clipped">
                    <mask id="mask-2" fill="white">
                        <use xlink:href="#path-1"></use>
                    </mask>
                    <g id="Artboard31"></g>
                    <path d="M8.18208,0.62112 C9.37608,0.22008 10.65408,0.00192 11.98224,-1.33810409e-05 C15.22776,-0.0048 18.17616,1.28208 20.34024,3.37536 L20.34456,3.37968 C20.39928,3.43272 20.45352,3.48624 20.50728,3.54024 L20.50896,3.54192 C20.5356,3.56856 20.562,3.59568 20.5884,3.62256 L20.59248,3.62664 C20.64504,3.68064 20.69688,3.73488 20.74824,3.7896 L20.75352,3.79512 C20.7792,3.82272 20.80488,3.85008 20.83032,3.87792 L20.83128,3.87888 C20.88264,3.9348 20.93352,3.9912 20.98392,4.04808 L20.98992,4.0548 C21.0396,4.11072 21.08856,4.16712 21.1368,4.224 L21.1416,4.22928 C21.1656,4.2576 21.18936,4.28592 21.21312,4.31448 L21.21768,4.31976 C21.26544,4.37712 21.31272,4.43472 21.35928,4.4928 L21.36576,4.50072 C22.992,6.52848 23.97408,9.09504 23.99952,11.88912 L23.99952,11.9028 C24,11.9292 24,11.9556 24,11.98224 C24,12.01512 24,12.04776 24,12.08064 L24,12.09264 L23.99952,12.10752 L23.99928,12.13728 L23.99856,12.18912 L23.99832,12.2028 L23.99832,12.20736 C23.9976,12.23976 23.99688,12.27216 23.99616,12.30456 L23.99592,12.31272 L23.99544,12.32832 L23.99448,12.36888 L23.99328,12.40656 L23.9928,12.4224 L23.99232,12.43128 C23.99112,12.46344 23.98992,12.49584 23.98848,12.52824 L23.98848,12.5316 L23.98776,12.54336 L23.98536,12.59928 L23.98392,12.62712 L23.9832,12.6408 L23.98248,12.65304 L23.98128,12.67584 L23.9772,12.74664 L23.97696,12.74976 L23.97696,12.75048 C23.9748,12.78312 23.97264,12.81576 23.97048,12.8484 L23.96976,12.85848 L23.96856,12.87216 L23.9664,12.90504 L23.96256,12.95496 L23.9616,12.96696 L23.96112,12.97152 C23.95848,13.00416 23.95584,13.0368 23.95296,13.06944 L23.95248,13.07496 L23.95128,13.08672 L23.9472,13.1328 L23.94336,13.17096 L23.9424,13.18272 L23.94168,13.19016 C23.93832,13.22352 23.93496,13.25688 23.93136,13.29 L23.93136,13.29048 L23.93112,13.29144 L23.92368,13.35936 L23.92032,13.38888 L23.91936,13.39776 L23.9184,13.40592 C23.91048,13.47336 23.90208,13.54056 23.89296,13.60752 L23.89248,13.61136 L23.89176,13.61712 C23.37816,17.42352 21.07656,20.66688 17.86056,22.47192 L17.81256,22.4988 C17.78064,22.51656 17.74872,22.53408 17.7168,22.55136 L17.71584,22.55184 L17.71416,22.5528 L17.66976,22.5768 L17.61888,22.60392 L17.61888,22.60392 L17.61888,22.60392 C17.58696,22.62096 17.55528,22.63776 17.52336,22.65432 L17.5212,22.65528 L17.5176,22.6572 C17.45448,22.68984 17.39136,22.722 17.32752,22.75368 L17.3244,22.75536 L17.31936,22.75776 C17.25648,22.78896 17.19336,22.81968 17.12976,22.84968 L17.12544,22.85184 L17.1192,22.85472 C17.05656,22.88448 16.99344,22.91352 16.92984,22.94232 L16.92432,22.94472 L16.9176,22.94784 C16.85472,22.97616 16.7916,23.004 16.728,23.03112 L16.72152,23.034 L16.71408,23.03712 C16.6512,23.06424 16.58784,23.09064 16.52424,23.11656 L16.51656,23.11968 L16.50888,23.1228 C16.44576,23.14848 16.38216,23.17368 16.31856,23.19816 L16.30968,23.20152 L16.30176,23.20464 C14.97144,23.71632 13.52736,23.99784 12.01776,24.0000141 C9.32736,24.00408 6.84096,23.12016 4.83648,21.62544 L4.79568,21.59472 L4.77864,21.582 C4.75296,21.56256 4.72728,21.54312 4.70184,21.52344 L4.70088,21.52272 L4.69968,21.52176 C4.63776,21.47424 4.57656,21.42624 4.5156,21.37776 L4.51368,21.37608 L4.51248,21.37512 C4.48224,21.35088 4.45224,21.32664 4.42248,21.3024 L4.42128,21.30144 L4.41936,21.3 C4.35984,21.25128 4.30056,21.20184 4.24176,21.15216 L4.23864,21.14928 L4.236,21.14712 C4.2072,21.12264 4.17816,21.09768 4.1496,21.07296 L4.1484,21.072 L4.14648,21.07008 C4.08864,21.02016 4.03128,20.96952 3.9744,20.91816 L3.97032,20.91456 L3.96672,20.91144 C3.93888,20.88624 3.91104,20.8608 3.88344,20.83536 L3.88248,20.83464 L3.88056,20.83296 L3.84024,20.79576 L3.79584,20.75424 L3.79536,20.75376 L3.79536,20.75376 C3.768,20.72808 3.74064,20.70216 3.71352,20.67624 L3.7092,20.67216 L3.70488,20.66808 C3.678,20.64216 3.65112,20.61624 3.62424,20.59008 L3.62376,20.5896 L3.62256,20.5884 L3.58008,20.54688 L3.54216,20.5092 L3.53928,20.50632 L3.53784,20.50488 C3.51168,20.47896 3.48576,20.4528 3.45984,20.42664 L3.45528,20.42208 L3.45048,20.41704 C1.3212,18.25464 0.0048,15.2892 -2.58919463e-05,12.01776 C-2.58919463e-05,11.91096 0.0012,11.80416 0.00384,11.69808 L0.00552,11.63112 L0.00696,11.58672 L0.0072,11.57976 L0.00744,11.5752 C0.00864,11.538 0.01008,11.5008 0.01176,11.4636 L0.012,11.46168 L0.012,11.4576 L0.01464,11.40072 L0.01728,11.35008 L0.01776,11.34408 L0.01776,11.34096 C0.01992,11.304 0.02208,11.26704 0.02448,11.23032 L0.02448,11.22672 L0.02496,11.22024 L0.02832,11.17128 L0.0324,11.11368 L0.03264,11.1096 L0.03264,11.10792 C0.03552,11.0712 0.0384,11.03448 0.04128,10.99776 L0.04176,10.99296 L0.04248,10.98552 C0.04848,10.91232 0.05544,10.83912 0.06288,10.76616 L0.06336,10.7604 L0.06408,10.75296 C0.07176,10.68024 0.07992,10.60752 0.0888,10.53528 L0.08952,10.52904 L0.09024,10.52256 C0.09912,10.44984 0.10872,10.37712 0.11904,10.30464 L0.11976,10.29912 L0.12048,10.29432 C0.13104,10.22088 0.14208,10.14744 0.15408,10.07424 L0.15456,10.07064 L0.15504,10.068 C0.78744,6.168 3.30264,2.89464 6.73752,1.21416 L6.74136,1.21224 L6.74712,1.20936 C6.80952,1.17912 6.87216,1.14912 6.93528,1.1196 L6.94008,1.11744 L6.9468,1.11432 C7.0092,1.08528 7.07208,1.05672 7.13496,1.02864 L7.14072,1.026 L7.1484,1.02264 C7.2108,0.99504 7.27368,0.96792 7.3368,0.94128 L7.34352,0.9384 L7.35168,0.9348 C7.41432,0.90864 7.4772,0.88272 7.54032,0.85728 L7.548,0.85416 L7.55688,0.8508 C7.61952,0.82584 7.68264,0.80112 7.746,0.77712 L7.7544,0.77376 L7.76352,0.7704 C7.82664,0.74664 7.88976,0.72336 7.95336,0.70056 L7.96272,0.6972 L7.97208,0.69384 C8.03544,0.67128 8.09904,0.6492 8.16264,0.6276 L8.17272,0.62424 L8.18208,0.62112 L8.18208,0.62112 Z M15.86928,21.42288 C15.34704,18.86808 14.62728,16.3848 13.72704,13.9896 C10.4832,15.1404 7.7064,17.2812 5.76048,20.04768 C7.48848,21.39 9.65952,22.18824 12.01512,22.1846521 C13.37928,22.18272 14.68056,21.912 15.86928,21.42288 L15.86928,21.42288 Z M22.10232,13.30008 C21.16656,13.13448 20.20368,13.04808 19.22088,13.04808 C17.89464,13.04808 16.60488,13.20528 15.36912,13.5024 C16.22568,15.79728 16.92192,18.16992 17.44416,20.60688 C19.94616,19.02 21.71016,16.3728 22.10232,13.30008 L22.10232,13.30008 Z M4.392,18.76824 C6.53568,15.81072 9.54192,13.51848 13.04016,12.26184 C12.7728,11.62536 12.49272,10.99536 12.19992,10.37256 C9.44376,11.37072 6.47112,11.91528 3.37248,11.91528 C2.85,11.91528 2.33112,11.89968 1.81608,11.8692 C1.8156,11.91768 1.81536,11.9664 1.81536,12.01512 C1.8192,14.60688 2.79288,16.97208 4.392,18.76824 Z M20.0856,5.80944 C18.19776,7.40184 16.07976,8.73 13.78872,9.73656 C14.10048,10.4028 14.39832,11.07696 14.68176,11.75856 C16.13328,11.38752 17.65416,11.19048 19.22088,11.19048 C20.22432,11.19048 21.20904,11.27136 22.1688,11.42712 C22.05168,9.32016 21.29304,7.3836 20.0856,5.80944 Z M7.74192,2.7468 C4.82376,4.0932 2.6496,6.77952 2.00928,10.01376 C2.46048,10.0392 2.91504,10.05192 3.37248,10.05192 C6.1752,10.05192 8.8668,9.57216 11.36952,8.69016 C10.29816,6.61944 9.08448,4.63416 7.74192,2.7468 L7.74192,2.7468 Z M18.82056,4.43904 C17.01096,2.80536 14.61264,1.81152 11.98488,1.81534891 C11.0952,1.81656 10.2324,1.93224 9.40992,2.14824 C10.72296,4.03104 11.91288,6.006 12.96768,8.0616 C15.09576,7.13496 17.06448,5.91 18.82056,4.43904 Z" id="dribbble" fill="#000000" mask="url(#mask-2)"></path>
                </g>
            </g>
        </g>
    </g>
</svg>