<?xml version="1.0" encoding="UTF-8"?>
<svg width="24px" height="17px" viewBox="0 0 24 17" version="1.1" xmlns="http://www.w3.org/2000/svg" xmlns:xlink="http://www.w3.org/1999/xlink">
    <!-- Generator: Sketch 55.2 (78181) - https://sketchapp.com -->
    <title>email</title>
    <desc>Created with Sketch.</desc>
    <g id="Symbols" stroke="none" stroke-width="1" fill="none" fill-rule="evenodd">
        <g id="nav" transform="translate(-1.000000, -1061.000000)" fill="#000000" fill-rule="nonzero">
            <g id="email" transform="translate(1.000000, 1061.000000)">
                <path d="M21.0684515,0 L2.9315483,0 C1.31516454,0 0,1.37221222 0,3.0587096 L0,13.9412904 C0,15.6277878 1.31516454,17 2.9315483,17 L21.0684515,17 C22.6848352,17 24,15.6277878 24,13.9412904 L24,3.05904218 C24.0003185,1.37221222 22.685154,0 21.0684515,0 Z M19.6359867,1.9954613 L11.9999999,7.12845293 L4.36401303,1.9954613 L19.6359867,1.9954613 Z M21.0684515,15.0048713 L2.9315483,15.0048713 C2.36959118,15.0048713 1.91250297,14.5276234 1.91250297,13.941623 L1.91250297,3.11558025 L11.4099927,9.48775335 C11.4227427,9.49606777 11.436449,9.50172157 11.4495178,9.50937084 C11.4632241,9.51735269 11.4772491,9.52500196 11.4912741,9.53231865 C11.5649055,9.5718953 11.6407681,9.60382268 11.7182244,9.62477502 C11.7261932,9.62710306 11.734162,9.62810079 11.7421307,9.63009625 C11.8272371,9.6510486 11.9132997,9.66401909 11.9993624,9.66401909 C11.9996811,9.66401909 11.9999999,9.66401909 11.9999999,9.66401909 C12.0006374,9.66401909 12.0009561,9.66401909 12.0012749,9.66401909 C12.0873375,9.66401909 12.1734002,9.65138117 12.2585065,9.63009625 C12.2664753,9.62810079 12.2744441,9.62710306 12.2824128,9.62477502 C12.3598692,9.60382268 12.4354131,9.5718953 12.5093632,9.53231865 C12.5233882,9.52500196 12.5374132,9.51735269 12.5511195,9.50937084 C12.5641883,9.50172157 12.5778945,9.49606777 12.5906446,9.48775335 L22.0881343,3.11558025 L22.0881343,13.9412904 C22.0878155,14.5276234 21.6304086,15.0048713 21.0684515,15.0048713 Z" id="Shape"></path>
            </g>
        </g>
    </g>
</svg>