<?xml version="1.0" ?><svg id="Layer_1" style="enable-background:new 0 0 96 96;" version="1.1" viewBox="0 0 96 96" xml:space="preserve" xmlns="http://www.w3.org/2000/svg" xmlns:xlink="http://www.w3.org/1999/xlink"><path d="M27.8,26.9c-0.4,2.1-0.4,4.4,0.3,6.3c0.6,1.4,0.3,3-0.7,4.1c-2.4,2.7-3.5,5.9-3.5,9.4c0,12.2,5.2,17,16.5,18.3  c1.6,0.2,2.9,1.2,3.3,2.8c0.5,1.5,0.1,3.1-1.1,4.2c-0.9,0.8-1.3,2.4-1.5,3.6c-0.2,1.3-0.9,2.4-2.1,3c0.2,0.1,0.3,0.2,0.5,0.3  c1,0.8,1.5,1.9,1.5,3.1c0,2.6,0.1,5.1,0.1,7.7c0,4.3-3.6,6.9-7.7,6.1c-0.2,0-0.4-0.1-0.6-0.1C13,89,0,70,0,49.1C0,22.5,21.1,0,48,0  s48,22.4,48,49.1C96,70,83,88.9,63.2,95.7c-0.2,0.1-0.3,0.1-0.5,0.1c-4.1,0.8-7.8-1.8-7.8-6.1c0-4.1,0.1-8.3,0.1-12.4  c0-1.6-0.3-4.2-1.6-5.4c-1.2-1.1-1.7-2.7-1.2-4.2c0.5-1.5,1.8-2.6,3.4-2.8c11.3-1.3,16.6-6.1,16.6-18.3c0-3.6-1.1-6.8-3.5-9.4  c-1-1.2-1.3-2.7-0.7-4.1c0.7-1.9,0.7-4.1,0.3-6.2c-2.4,0.8-5.6,2.8-6.9,3.7c-1,0.7-2.2,0.9-3.4,0.6c-3.2-0.9-6.6-1.4-9.9-1.4  c-3.3,0-6.7,0.5-9.9,1.4c-1.2,0.3-2.4,0.1-3.4-0.6C33.4,29.7,30.3,27.8,27.8,26.9L27.8,26.9z M48,4C23.7,4,4,24.2,4,49.1  C4,69,16.6,86,34.1,91.9c2.2,0.4,3-1,3-2.2c0-1.1,0-3.9-0.1-7.7c-12.2,2.7-14.8-6-14.8-6c-2-5.2-4.9-6.6-4.9-6.6  c-4-2.8,0.3-2.7,0.3-2.7c4.4,0.3,6.7,4.6,6.7,4.6c3.9,6.9,10.3,4.9,12.8,3.8c0.4-2.9,1.5-4.9,2.8-6c-9.8-1.1-20-5-20-22.3  c0-4.9,1.7-9,4.5-12.1c-0.5-1.1-2-5.7,0.4-11.9c0,0,3.7-1.2,12.1,4.6c3.5-1,7.3-1.5,11-1.5c3.7,0,7.5,0.5,11,1.5  c8.4-5.8,12.1-4.6,12.1-4.6c2.4,6.2,0.9,10.8,0.4,11.9c2.8,3.1,4.5,7.2,4.5,12.1C76.1,64.1,65.8,67.9,56,69c1.6,1.4,3,4.1,3,8.4  c0,6-0.1,10.9-0.1,12.4c0,1.2,0.8,2.6,3,2.2C79.4,85.9,92,69,92,49.1C92,24.2,72.3,4,48,4z"/></svg>