<?xml version="1.0" encoding="UTF-8"?>
<svg width="14px" height="20px" viewBox="0 0 14 20" version="1.1" xmlns="http://www.w3.org/2000/svg" xmlns:xlink="http://www.w3.org/1999/xlink">
    <!-- Generator: Sketch 55.2 (78181) - https://sketchapp.com -->
    <title>idea</title>
    <desc>Created with Sketch.</desc>
    <g id="Symbols" stroke="none" stroke-width="1" fill="none" fill-rule="evenodd">
        <g id="nav" transform="translate(-1829.000000, -25.000000)" fill="#000000" fill-rule="nonzero">
            <g id="idea" transform="translate(1829.000000, 25.000000)">
                <path d="M7.02190527,0.000585541312 L6.99985098,0 L6.9777967,0.000585541312 C3.61720064,0.0819757837 0,2.25345574 0,6.82858278 C0,9.43716933 1.5429058,10.9540141 2.66946248,12.0618583 C3.06196913,12.4474372 3.59961682,12.976181 3.62047898,13.2016144 L3.6949867,14 L10.3053113,14 L10.379521,13.2016144 C10.4003832,12.976181 10.9380309,12.44773 11.3305375,12.0618583 C12.4570942,10.9540141 14,9.43716933 14,6.82858278 C14.000298,2.25374851 10.3827994,0.0822685543 7.02190527,0.000585541312 Z M10.0659925,10.8202179 C9.57096328,11.3068027 9.12093667,11.7491792 8.85151676,12.2430833 L5.14848324,12.2430833 C4.87906333,11.7488864 4.42903672,11.3068027 3.93430548,10.8202179 C2.9284513,9.83094586 1.78788717,8.70992702 1.78788717,6.82858278 C1.78788717,3.4221962 4.40191591,1.82864552 7.00014902,1.75720948 C9.59808409,1.82893829 12.2118149,3.4221962 12.2118149,6.82858278 C12.2121128,8.70992702 11.0718467,9.83123863 10.0659925,10.8202179 Z" id="Shape"></path>
                <path d="M4,15.9647543 C4,18.1897993 5.57004167,20 7.5,20 C9.42995833,20 11,18.1897993 11,15.9647543 L11,15 L4,15 C4,15 4,15.9647543 4,15.9647543 Z M9.05516667,16.9295086 C8.76408333,17.6064446 8.17608333,18.0704914 7.5,18.0704914 C6.82391667,18.0704914 6.23591667,17.6067661 5.94454167,16.9295086 L9.05516667,16.9295086 Z" id="Shape"></path>
            </g>
        </g>
    </g>
</svg>