<?xml version="1.0" encoding="UTF-8"?>
<svg width="24px" height="24px" viewBox="0 0 24 24" version="1.1" xmlns="http://www.w3.org/2000/svg" xmlns:xlink="http://www.w3.org/1999/xlink">
    <!-- Generator: Sketch 55.2 (78181) - https://sketchapp.com -->
    <title>sm-icon-instagram</title>
    <desc>Created with Sketch.</desc>
    <defs>
        <rect id="path-1" x="0" y="0" width="24" height="24"></rect>
    </defs>
    <g id="Symbols" stroke="none" stroke-width="1" fill="none" fill-rule="evenodd">
        <g id="nav" transform="translate(-1648.000000, -1057.000000)">
            <g id="sm-icon-instagram" transform="translate(1648.000000, 1057.000000)">
                <rect id="Artboard2" x="0" y="0" width="24" height="24"></rect>
                <g id="Clipped">
                    <mask id="mask-2" fill="white">
                        <use xlink:href="#path-1"></use>
                    </mask>
                    <g id="Artboard21"></g>
                    <g id="instagram" mask="url(#mask-2)" fill="#000000">
                        <path d="M17.53848,-3.55271368e-15 L6.46152,-3.55271368e-15 C2.91696,-3.55271368e-15 -3.55271368e-15,2.91696 -3.55271368e-15,6.46152 L-3.55271368e-15,17.53848 C-3.55271368e-15,21.08304 2.91696,24 6.46152,24 L17.53848,24 C21.08304,24 24,21.08304 24,17.53848 L24,6.46152 C24,2.91696 21.08304,-3.55271368e-15 17.53848,-3.55271368e-15 Z M22.15392,17.53848 C22.15392,20.07048 20.07048,22.15392 17.53848,22.15392 L6.46152,22.15392 C3.92952,22.15392 1.84608,20.07048 1.84608,17.53848 L1.84608,6.46152 C1.84608,3.92952 3.92952,1.84608 6.46152,1.84608 L17.53848,1.84608 C20.07048,1.84608 22.15392,3.92952 22.15392,6.46152 L22.15392,17.53848 Z" id="Shape"></path>
                        <path d="M12,5.53848 C8.4552,5.53848 5.53848,8.4552 5.53848,12 C5.53848,15.5448 8.4552,18.46152 12,18.46152 C15.5448,18.46152 18.46152,15.5448 18.46152,12 C18.46152,8.4552 15.5448,5.53848 12,5.53848 Z M12,16.61544 C9.468,16.61544 7.38456,14.532 7.38456,12 C7.38456,9.468 9.468,7.38456 12,7.38456 C14.532,7.38456 16.61544,9.468 16.61544,12 C16.61544,14.532 14.532,16.61544 12,16.61544 Z" id="Shape"></path>
                        <circle id="Oval" cx="18.46152" cy="5.53848" r="1.38456"></circle>
                    </g>
                </g>
            </g>
        </g>
    </g>
</svg>