<?xml version="1.0" encoding="UTF-8"?>
<svg width="24px" height="24px" viewBox="0 0 24 24" version="1.1" xmlns="http://www.w3.org/2000/svg" xmlns:xlink="http://www.w3.org/1999/xlink">
    <!-- Generator: Sketch 55.2 (78181) - https://sketchapp.com -->
    <title>sm-icon-linkedin</title>
    <desc>Created with Sketch.</desc>
    <g id="Symbols" stroke="none" stroke-width="1" fill="none" fill-rule="evenodd">
        <g id="nav" transform="translate(-1816.000000, -1057.000000)">
            <g id="sm-icon-linkedin" transform="translate(1816.000000, 1057.000000)">
                <rect id="Artboard5" x="0" y="0" width="24" height="24"></rect>
                <g id="Artboard51" fill="#000000">
                    <g id="linkedin">
                        <path d="M5.53848,7.15392 L0.92304,7.15392 C0.41664,7.15392 0,7.57056 0,8.07696 L0,22.75392 C0,23.26032 0.41664,23.67696 0.92304,23.67696 L5.53848,23.67696 C6.04488,23.67696 6.46152,23.26032 6.46152,22.75392 L6.46152,8.07696 C6.46152,7.57056 6.04488,7.15392 5.53848,7.15392 Z M4.61544,21.83088 L1.84608,21.83088 L1.84608,9 L4.61544,9 L4.61544,21.83088 Z" id="Shape"></path>
                        <path d="M3.23088,0.23088 C1.45848,0.23088 0,1.68912 0,3.46152 C0,5.23392 1.45848,6.6924 3.23088,6.6924 C5.00304,6.6924 6.46152,5.23392 6.46152,3.46152 C6.46152,1.68912 5.00304,0.23088 3.23088,0.23088 Z M3.23088,4.84608 C2.47128,4.84608 1.84608,4.22112 1.84608,3.46152 C1.84608,2.70192 2.47128,2.07696 3.23088,2.07696 C3.99024,2.07696 4.61544,2.70192 4.61544,3.46152 C4.61544,4.22112 3.99024,4.84608 3.23088,4.84608 Z" id="Shape"></path>
                        <path d="M18.46152,7.15392 C17.17272,7.14528 15.9024,7.4628 14.76912,8.07696 C14.76912,7.57056 14.35248,7.15392 13.84608,7.15392 L9.23088,7.15392 C8.72448,7.15392 8.3076,7.57056 8.3076,8.07696 L8.3076,22.84608 C8.3076,23.35248 8.72448,23.76912 9.23088,23.76912 L13.84608,23.76912 C14.35248,23.76912 14.76912,23.35248 14.76912,22.84608 L14.76912,15.46152 C14.76912,14.53848 15.28608,13.61544 16.15392,13.61544 C17.02152,13.61544 17.53848,14.53848 17.53848,15.46152 L17.53848,22.84608 C17.53848,23.35248 17.95512,23.76912 18.46152,23.76912 L23.07696,23.76912 C23.58336,23.76912 24,23.35248 24,22.84608 L24,13.61544 C24,11.93544 22.98456,7.15392 18.46152,7.15392 L18.46152,7.15392 Z M22.15392,21.92304 L19.38456,21.92304 L19.38456,15.46152 C19.39056,15.37944 19.39344,15.29736 19.39344,15.21504 C19.39344,13.40136 17.96424,11.88096 16.15392,11.76912 C14.3436,11.88096 12.91416,13.40136 12.91416,15.21504 C12.91416,15.29736 12.91728,15.37944 12.92304,15.46152 L12.92304,21.92304 L10.15392,21.92304 L10.15392,9 L12.92304,9 L12.92304,9.92304 C12.92472,10.42848 13.34088,10.8432 13.84608,10.8432 C14.1312,10.8432 14.40072,10.7112 14.57544,10.48608 C15.59016,9.4464 17.01192,8.9028 18.46152,9 C21.99696,9 22.15392,13.56912 22.15392,13.61544 L22.15392,21.92304 Z" id="Shape"></path>
                    </g>
                </g>
            </g>
        </g>
    </g>
</svg>