<?xml version="1.0" encoding="UTF-8"?>
<svg width="24px" height="22px" viewBox="0 0 24 22" version="1.1" xmlns="http://www.w3.org/2000/svg" xmlns:xlink="http://www.w3.org/1999/xlink">
    <!-- Generator: Sketch 55.2 (78181) - https://sketchapp.com -->
    <title>sm-icon-twitter</title>
    <desc>Created with Sketch.</desc>
    <g id="Symbols" stroke="none" stroke-width="1" fill="none" fill-rule="evenodd">
        <g id="nav" transform="translate(-1704.000000, -1058.000000)">
            <g id="sm-icon-twitter" transform="translate(1704.000000, 1057.000000)">
                <rect id="Artboard1" x="0" y="0" width="24" height="24"></rect>
                <g id="Artboard11" transform="translate(0.000000, 1.680000)" fill="#000000">
                    <path d="M23.75328,3.3996 C23.90112,3.13872 23.97792,2.84328 23.97576,2.54352 C23.97576,1.60416 23.20296,0.83112 22.2636,0.83112 C21.9588,0.84456 21.66336,0.93936 21.40752,1.1052 C21.31032,1.17192 21.21864,1.24632 21.13344,1.32768 C20.97456,1.44504 20.802,1.54272 20.61984,1.6188 C19.52352,0.58368 18.07176,0.00648 16.56408,0.00648 C13.58328,0.00648 11.04576,2.26272 10.69728,5.22312 C6.10848,4.36704 4.79856,1.84992 4.78992,1.79856 C4.53072,1.26888 4.0152,0.90912 3.42864,0.8484 L3.25752,0.8484 C2.71896,0.8484 2.21088,1.10232 1.8876,1.53312 C0.88584,2.98344 0.61344,4.82016 1.15152,6.49872 C0.79536,6.82344 0.57264,7.26912 0.52632,7.74864 C0.53496,9.43224 1.17,11.05344 2.30712,12.29472 L2.30712,12.3804 C2.31816,13.66512 2.95872,14.86584 4.01952,15.59088 C3.2664,15.80448 2.49024,15.9252 1.70784,15.9504 C0.77016,15.9528 8.8817842e-15,16.72512 8.8817842e-15,17.6628 C8.8817842e-15,18.36384 0.4308,18.99744 1.08288,19.2552 C3.47376,20.16072 6.00864,20.62776 8.56536,20.63352 C13.0944,20.63352 20.83368,18.92112 22.34904,7.50048 C22.84584,6.96528 23.30088,6.39288 23.71032,5.78808 C24.13176,5.16048 24.08976,4.32432 23.6076,3.74208 C23.65896,3.588 23.71896,3.51096 23.75328,3.3996 L23.75328,3.3996 Z M20.70528,5.4372 C21.24384,5.2836 21.76584,5.0772 22.2636,4.82088 C21.80712,5.49792 21.282,6.12624 20.69688,6.69576 C19.60104,16.59264 13.70232,18.92112 8.56536,18.92112 C6.22512,18.91104 3.90552,18.48192 1.71648,17.65416 C-0.47256,16.8264 5.5176,17.65416 7.8036,15.39384 C7.8036,15.39384 4.00224,14.63208 4.00224,12.37176 L5.5176,12.37176 C2.7096,11.66976 1.84488,7.7916 2.3328,7.7916 C2.39016,7.80144 2.442,7.83192 2.47848,7.87704 C3.13824,8.36976 3.9408,8.63424 4.76424,8.63064 C0.95448,5.57424 3.24024,2.55192 3.24024,2.55192 C3.24024,2.55192 5.14104,6.6528 12.5808,7.24368 C12.43896,6.82728 12.36672,6.39048 12.36672,5.9508 C12.37608,3.67008 14.25528,1.79855902 16.536,1.79855902 C16.54176,1.79855902 16.54752,1.79855902 16.55304,1.79855902 C17.95728,1.7976 19.27272,2.49888 20.05464,3.66504 C20.85192,3.4296 21.6,3.0528 22.2636,2.55192 C21.81408,3.45984 21.2748,4.32024 20.65392,5.1204 C20.6796,5.22312 20.68824,5.32584 20.70528,5.4372 Z" id="twitter"></path>
                </g>
            </g>
        </g>
    </g>
</svg>